<svg width="34" height="35" viewBox="0 0 34 35" fill="none" xmlns="http://www.w3.org/2000/svg">
<g id="cloud">
<path id="Vector" d="M25.5 14.6666H23.715C23.185 12.6139 22.0898 10.7509 20.5539 9.28952C19.018 7.8281 17.103 6.82678 15.0265 6.39935C12.9499 5.97192 10.7951 6.13552 8.80692 6.87155C6.81871 7.60758 5.07682 8.88653 3.77917 10.5631C2.48152 12.2396 1.68015 14.2466 1.46611 16.3558C1.25208 18.465 1.63396 20.592 2.56838 22.4951C3.50279 24.3981 4.95226 26.0009 6.75208 27.1213C8.55191 28.2418 10.6299 28.8349 12.75 28.8333H25.5C27.3786 28.8333 29.1803 28.087 30.5087 26.7586C31.8371 25.4303 32.5833 23.6286 32.5833 21.75C32.5833 19.8713 31.8371 18.0697 30.5087 16.7413C29.1803 15.4129 27.3786 14.6666 25.5 14.6666Z" fill="#0EA5E9" stroke="#0EA5E9" stroke-width="2" stroke-linecap="round" stroke-linejoin="round"/>
</g>
</svg>
